<svg xmlns="http://www.w3.org/2000/svg" viewBox="0 0 1000 520" preserveAspectRatio="xMidYMid meet"><path d="M617.915,125.034L618.647,125.143L620.732,127.087L621.889,127.304L622.188,126.491L623.479,125.202L625.118,126.886L626.818,129.159L628.041,129.311L628.977,130.174L626.921,130.429L626.898,132.924L626.644,134.05L625.832,134.801L626.159,136.396L625.543,136.554L623.665,134.872L624.285,133.283L623.369,132.336L622.448,132.576L619.801,134.948L619.383,132.717L618.152,132.19L616.924,131.32L617.479,130.293L615.938,129.197L616.323,128.394L615.258,127.835L614.598,126.995L615.136,126.475L617.186,127.39L618.587,127.586L618.871,127.206L617.332,125.478ZM618.879,135.04L617.051,134.616L615.517,133.13L614.922,131.918L615.444,131.831L616.337,132.695L617.473,132.684L617.541,133.179Z" fill="#1a1a1a" stroke="#000000" stroke-width="0.6" stroke-linejoin="round"/><g><circle cx="621.7" cy="130.3" r="13" fill="#ffffff" opacity="0.9"/><circle cx="621.7" cy="130.3" r="10.5" fill="none" stroke="#000000" stroke-width="3"/><circle cx="621.7" cy="130.3" r="3.5" fill="#000000"/></g></svg>