<svg xmlns="http://www.w3.org/2000/svg" viewBox="0 0 1000 520" preserveAspectRatio="xMidYMid meet"><path d="M307.937,295.21L310.002,295.482L311.42,295.411L311.978,294.436L314.322,293.134L315.719,291.925L319.304,291.381L319.144,293.793L319.552,295.03L319.45,297.187L322.631,300.07L325.752,300.604L326.912,301.803L328.819,302.441L330.022,303.379L331.755,303.346L333.415,304.3L333.662,306.165L334.272,307.103L334.403,308.494L333.605,308.549L334.95,312.303L340.224,312.434L339.966,314.301L340.364,315.573L341.927,316.479L342.745,318.483L342.483,321.023L341.854,322.439L342.29,324.28L341.5,324.947L341.366,323.952L338.668,322.302L336.129,322.253L331.465,323.193L330.449,326.035L330.564,327.774L329.916,331.646L329.397,330.951L326.294,330.82L325.536,333.419L323.667,331.083L320.016,330.295L318.115,333.216L316.22,333.659L314.605,329.206L312.712,325.581L313.228,322.455L311.647,321.089L311.04,318.762L309.479,316.566L310.872,313.083L309.453,310.377L309.982,309.291L309.396,308.096L310.333,306.487L310.178,303.744L310.141,301.482L310.66,300.392Z" fill="#1a1a1a" stroke="#000000" stroke-width="0.6" stroke-linejoin="round"/><g><circle cx="322.8" cy="313.8" r="13" fill="#ffffff" opacity="0.9"/><circle cx="322.8" cy="313.8" r="10.5" fill="none" stroke="#000000" stroke-width="3"/><circle cx="322.8" cy="313.8" r="3.5" fill="#000000"/></g></svg>